<svg width="41" height="40" viewBox="0 0 41 40" fill="none" xmlns="http://www.w3.org/2000/svg">
<path d="M22.8823 13.9197C21.9283 14.5998 20.7608 14.9999 19.4998 14.9999C16.2782 14.9999 13.6665 12.3882 13.6665 9.16659C13.6665 5.94492 16.2782 3.33325 19.4998 3.33325C21.5881 3.33325 23.4202 4.43061 24.4507 6.08016M10.3332 33.4785H14.6837C15.2509 33.4785 15.8146 33.546 16.3645 33.681L20.9613 34.7981C21.9587 35.041 22.9978 35.0647 24.0056 34.8689L29.0881 33.8801C30.4307 33.6186 31.6658 32.9757 32.6337 32.0341L36.2297 28.5361C37.2566 27.5389 37.2566 25.9206 36.2297 24.9217C35.3051 24.0223 33.841 23.9211 32.7951 24.6838L28.6042 27.7413C28.004 28.1801 27.2737 28.4163 26.5226 28.4163H22.4757L25.0516 28.4162C26.5035 28.4162 27.6796 27.2721 27.6796 25.8598V25.3485C27.6796 24.1758 26.8591 23.1532 25.69 22.8697L21.7142 21.9028C21.0671 21.7459 20.4045 21.6666 19.7384 21.6666C18.1304 21.6666 15.2197 22.9979 15.2197 22.9979L10.3332 25.0414M33.6665 10.8333C33.6665 14.0549 31.0548 16.6666 27.8332 16.6666C24.6115 16.6666 21.9998 14.0549 21.9998 10.8333C21.9998 7.61159 24.6115 4.99992 27.8332 4.99992C31.0548 4.99992 33.6665 7.61159 33.6665 10.8333ZM3.6665 24.3333L3.6665 33.9999C3.6665 34.9333 3.6665 35.4 3.84816 35.7566C4.00795 36.0702 4.26292 36.3251 4.57652 36.4849C4.93304 36.6666 5.39975 36.6666 6.33317 36.6666H7.6665C8.59992 36.6666 9.06663 36.6666 9.42315 36.4849C9.73676 36.3251 9.99173 36.0702 10.1515 35.7566C10.3332 35.4 10.3332 34.9333 10.3332 33.9999V24.3333C10.3332 23.3998 10.3332 22.9331 10.1515 22.5766C9.99173 22.263 9.73676 22.008 9.42315 21.8482C9.06664 21.6666 8.59993 21.6666 7.6665 21.6666L6.33317 21.6666C5.39975 21.6666 4.93304 21.6666 4.57652 21.8482C4.26292 22.008 4.00795 22.263 3.84816 22.5766C3.6665 22.9331 3.6665 23.3998 3.6665 24.3333Z" stroke="#0064FA" stroke-width="2" stroke-linecap="round" stroke-linejoin="round"/>
</svg>
